<svg width="200" height="196" viewBox="0 0 200 196" fill="none" xmlns="http://www.w3.org/2000/svg">
<g clip-path="url(#clip0_63_6)">
<path d="M198.07 97.94C198.07 121.7 169.51 135.29 153.52 150.78C137.75 166.06 123.72 194.39 99.78 194.39C75.84 194.39 61.78 166.06 46.04 150.78C30.04 135.29 1.5 121.7 1.5 97.94C1.5 74.18 30.05 60.58 46.04 45.09C61.81 29.82 75.84 1.48999 99.78 1.48999C123.72 1.48999 137.78 29.82 153.52 45.09C169.51 60.59 198.07 74.19 198.07 97.94Z" stroke="#D798F6" stroke-width="3" stroke-miterlimit="10"/>
<path d="M196.51 115.35C192.31 138.74 161.79 147.06 143.31 159.47C125.09 171.71 106.26 197.11 82.7 192.87C59.14 188.63 50.35 158.27 37.53 140.44C24.53 122.36 -1.15995 103.93 3.05005 80.54C7.26005 57.15 37.77 48.83 56.25 36.42C74.47 24.18 93.3 -1.21999 116.86 3.02001C140.42 7.26001 149.22 37.63 162.03 55.45C175.02 73.53 200.72 91.94 196.51 115.35Z" stroke="#D798F6" stroke-width="3" stroke-miterlimit="10"/>
<path d="M192.16 131.37C184.16 153.73 152.63 156.84 132.34 166C112.34 175 89.53 196.94 67.01 188.83C44.49 180.72 40.8799 149.31 31.2199 129.6C21.4199 109.6 -0.840054 87.14 7.21995 64.79C15.2799 42.44 46.7399 39.31 67.0299 30.16C87.0299 21.16 109.84 -0.780001 132.36 7.33C154.88 15.44 158.49 46.85 168.15 66.56C177.94 86.55 200.2 109.01 192.16 131.37Z" stroke="#D798F6" stroke-width="3" stroke-miterlimit="10"/>
<path d="M184.99 146.73C173.11 167.3 141.59 164.8 119.99 170.22C98.6901 175.56 72.3701 193.08 51.6401 181.11C30.9101 169.14 32.92 137.59 26.91 116.48C20.8 95.07 2.91004 69.02 14.75 48.48C26.59 27.94 58.16 30.41 79.75 24.99C101.04 19.64 127.36 2.12998 148.09 14.09C168.82 26.05 166.81 57.62 172.83 78.73C178.94 100.1 196.87 126.15 184.99 146.73Z" stroke="#D798F6" stroke-width="3" stroke-miterlimit="10"/>
</g>
<defs>
<clipPath id="clip0_63_6">
<rect width="199.57" height="195.9" fill="white"/>
</clipPath>
</defs>
</svg>
